<?xml version="1.0" encoding="utf-8"?>
<!-- Generator: Adobe Illustrator 16.0.0, SVG Export Plug-In . SVG Version: 6.00 Build 0)  -->
<!DOCTYPE svg PUBLIC "-//W3C//DTD SVG 1.1//EN" "http://www.w3.org/Graphics/SVG/1.1/DTD/svg11.dtd">
<svg version="1.1" xmlns="http://www.w3.org/2000/svg" xmlns:xlink="http://www.w3.org/1999/xlink" x="0px" y="0px"
	 width="295.998px" height="311.31px" viewBox="0 0 295.998 311.31" enable-background="new 0 0 295.998 311.31"
	 xml:space="preserve">
<g id="Layer_3">
</g>
<g id="Layer_1">
	<g>
		<path fill="#020202" d="M24.601,311.199l7.257-15.775h1.149l7.257,15.775h-1.239l-6.852-15.055h0.496l-6.828,15.055H24.601z
			 M27.261,306.759l0.383-0.971h9.442l0.384,0.971H27.261z"/>
		<path fill="#020202" d="M48.917,311.199v-15.775h6.581c1.698,0,3.027,0.346,3.989,1.035c0.961,0.691,1.442,1.691,1.442,2.998
			c0,0.857-0.203,1.578-0.608,2.164c-0.406,0.586-0.966,1.025-1.68,1.318c-0.713,0.293-1.514,0.439-2.399,0.439l0.405-0.451
			c1.082,0,2.006,0.158,2.772,0.473c0.766,0.316,1.348,0.775,1.746,1.375c0.398,0.602,0.598,1.354,0.598,2.254
			c0,1.322-0.481,2.348-1.442,3.076c-0.962,0.729-2.42,1.094-4.372,1.094H48.917z M50.067,310.207h5.883
			c1.517,0,2.674-0.26,3.471-0.777c0.796-0.518,1.194-1.348,1.194-2.49c0-1.127-0.398-1.949-1.194-2.469
			c-0.797-0.518-1.954-0.777-3.471-0.777h-6.018v-0.99h5.521c1.367,0,2.426-0.264,3.178-0.789c0.751-0.525,1.127-1.314,1.127-2.367
			c0-1.037-0.376-1.816-1.127-2.344c-0.752-0.525-1.811-0.789-3.178-0.789h-5.387V310.207z"/>
		<path fill="#020202" d="M67.014,310.162h9.736v1.037H65.865v-15.775h10.548v1.035h-9.398V310.162z M66.879,302.679h8.541v1.014
			h-8.541V302.679z"/>
		<path fill="#020202" d="M82.091,310.162h9.736v1.037H80.942v-15.775H91.49v1.035h-9.398V310.162z M81.957,302.679h8.541v1.014
			h-8.541V302.679z"/>
		<path fill="#020202" d="M96.019,311.199v-15.775h5.657c1.322,0,2.456,0.209,3.403,0.631c0.946,0.42,1.675,1.025,2.186,1.814
			c0.511,0.787,0.767,1.746,0.767,2.873c0,1.096-0.256,2.039-0.767,2.828s-1.239,1.396-2.186,1.826
			c-0.947,0.428-2.081,0.641-3.403,0.641h-5.025l0.518-0.541v5.703H96.019z M97.168,305.564l-0.518-0.541h5.025
			c1.697,0,2.986-0.375,3.865-1.127c0.879-0.75,1.318-1.803,1.318-3.154c0-1.367-0.439-2.424-1.318-3.166
			c-0.879-0.744-2.168-1.117-3.865-1.117h-5.025l0.518-0.563V305.564z M106.972,311.199l-4.102-5.725h1.308l4.102,5.725H106.972z"/>
		<path fill="#020202" d="M119.186,311.199h-1.149v-15.775h10.548v1.035h-9.398V311.199z M119.051,303.197h8.541v1.037h-8.541
			V303.197z"/>
		<path fill="#020202" d="M138.749,311.31c-1.173,0-2.258-0.197-3.257-0.596c-1-0.398-1.871-0.963-2.614-1.691
			c-0.744-0.729-1.318-1.576-1.725-2.547c-0.405-0.969-0.608-2.023-0.608-3.166c0-1.141,0.203-2.197,0.608-3.166
			c0.406-0.969,0.98-1.818,1.725-2.547c0.743-0.729,1.614-1.291,2.614-1.689c0.999-0.398,2.084-0.598,3.257-0.598
			c1.172,0,2.257,0.199,3.256,0.598s1.867,0.957,2.604,1.678c0.735,0.723,1.311,1.566,1.724,2.535
			c0.413,0.971,0.62,2.033,0.62,3.189c0,1.158-0.207,2.221-0.62,3.189s-0.988,1.814-1.724,2.535
			c-0.736,0.721-1.604,1.281-2.604,1.68S139.92,311.31,138.749,311.31z M138.749,310.251c1.006,0,1.938-0.172,2.794-0.518
			s1.601-0.834,2.231-1.465s1.123-1.367,1.476-2.209c0.354-0.842,0.53-1.758,0.53-2.75c0-1.006-0.177-1.926-0.53-2.76
			c-0.353-0.834-0.845-1.566-1.476-2.197s-1.375-1.119-2.231-1.465s-1.788-0.52-2.794-0.52c-1.007,0-1.938,0.174-2.795,0.52
			s-1.604,0.834-2.242,1.465c-0.639,0.631-1.135,1.363-1.487,2.197c-0.354,0.834-0.53,1.754-0.53,2.76
			c0,0.992,0.177,1.908,0.53,2.75c0.353,0.842,0.849,1.578,1.487,2.209c0.638,0.631,1.386,1.119,2.242,1.465
			S137.742,310.251,138.749,310.251z"/>
		<path fill="#020202" d="M150.94,311.199v-15.775h5.657c1.322,0,2.456,0.209,3.403,0.631c0.946,0.42,1.675,1.025,2.186,1.814
			c0.511,0.787,0.767,1.746,0.767,2.873c0,1.096-0.256,2.039-0.767,2.828s-1.239,1.396-2.186,1.826
			c-0.947,0.428-2.081,0.641-3.403,0.641h-5.025l0.518-0.541v5.703H150.94z M152.089,305.564l-0.518-0.541h5.025
			c1.697,0,2.986-0.375,3.865-1.127c0.879-0.75,1.318-1.803,1.318-3.154c0-1.367-0.439-2.424-1.318-3.166
			c-0.879-0.744-2.168-1.117-3.865-1.117h-5.025l0.518-0.563V305.564z M161.893,311.199l-4.102-5.725h1.308l4.102,5.725H161.893z"/>
		<path fill="#020202" d="M174.108,311.199h-1.149v-15.775h10.548v1.035h-9.398V311.199z M173.973,303.197h8.541v1.037h-8.541
			V303.197z"/>
		<path fill="#020202" d="M187.178,311.199v-15.775h5.657c1.322,0,2.456,0.209,3.403,0.631c0.946,0.42,1.675,1.025,2.186,1.814
			c0.511,0.787,0.767,1.746,0.767,2.873c0,1.096-0.256,2.039-0.767,2.828s-1.239,1.396-2.186,1.826
			c-0.947,0.428-2.081,0.641-3.403,0.641h-5.025l0.518-0.541v5.703H187.178z M188.328,305.564l-0.518-0.541h5.025
			c1.697,0,2.986-0.375,3.865-1.127c0.879-0.75,1.318-1.803,1.318-3.154c0-1.367-0.439-2.424-1.318-3.166
			c-0.879-0.744-2.168-1.117-3.865-1.117h-5.025l0.518-0.563V305.564z M198.131,311.199l-4.102-5.725h1.308l4.102,5.725H198.131z"/>
		<path fill="#020202" d="M203.405,311.199v-15.775h1.149v15.775H203.405z"/>
		<path fill="#020202" d="M211.203,310.162h9.736v1.037h-10.886v-15.775h10.548v1.035h-9.398V310.162z M211.068,302.679h8.541v1.014
			h-8.541V302.679z"/>
		<path fill="#020202" d="M225.129,311.199v-15.775h0.97l11.246,14.355h-0.519v-14.355h1.149v15.775h-0.947l-11.268-14.355h0.518
			v14.355H225.129z"/>
		<path fill="#020202" d="M243.474,311.199v-15.775h6.243c1.668,0,3.133,0.338,4.395,1.014s2.242,1.607,2.941,2.795
			c0.698,1.186,1.048,2.547,1.048,4.078c0,1.533-0.35,2.893-1.048,4.08c-0.699,1.186-1.68,2.117-2.941,2.795
			c-1.262,0.676-2.727,1.014-4.395,1.014H243.474z M244.624,310.162h5.004c1.487,0,2.779-0.293,3.876-0.879s1.945-1.393,2.547-2.422
			c0.601-1.029,0.901-2.213,0.901-3.551c0-1.336-0.301-2.52-0.901-3.549c-0.602-1.029-1.45-1.838-2.547-2.424
			s-2.389-0.879-3.876-0.879h-5.004V310.162z"/>
		<path fill="#020202" d="M266.237,311.31c-1.172,0-2.28-0.197-3.324-0.596c-1.045-0.398-1.853-0.914-2.423-1.545l0.519-0.855
			c0.541,0.555,1.28,1.025,2.22,1.408c0.938,0.383,1.935,0.574,2.986,0.574c1.051,0,1.911-0.139,2.58-0.416
			c0.668-0.279,1.164-0.65,1.487-1.115c0.323-0.467,0.484-0.984,0.484-1.557c0-0.676-0.18-1.217-0.541-1.621
			c-0.36-0.406-0.833-0.729-1.419-0.971c-0.586-0.24-1.226-0.441-1.916-0.607c-0.691-0.166-1.39-0.342-2.096-0.529
			c-0.707-0.188-1.353-0.432-1.938-0.732s-1.056-0.711-1.408-1.229c-0.354-0.52-0.53-1.191-0.53-2.018
			c0-0.75,0.195-1.441,0.586-2.072c0.391-0.633,0.999-1.143,1.826-1.533c0.826-0.391,1.885-0.586,3.178-0.586
			c0.871,0,1.731,0.127,2.58,0.383s1.574,0.602,2.175,1.037l-0.428,0.924c-0.662-0.451-1.372-0.785-2.13-1.004
			c-0.759-0.217-1.491-0.326-2.197-0.326c-1.007,0-1.841,0.143-2.502,0.428c-0.661,0.287-1.149,0.666-1.465,1.139
			s-0.474,1.004-0.474,1.59c0,0.676,0.177,1.217,0.53,1.621c0.353,0.406,0.822,0.73,1.408,0.971s1.231,0.443,1.938,0.607
			c0.706,0.166,1.404,0.342,2.096,0.529c0.69,0.189,1.33,0.432,1.916,0.732s1.059,0.707,1.419,1.217
			c0.361,0.512,0.541,1.172,0.541,1.984c0,0.736-0.202,1.424-0.608,2.063c-0.405,0.639-1.025,1.148-1.859,1.531
			S267.543,311.31,266.237,311.31z"/>
	</g>
	<g>
		<path d="M39.899,214.398v65h218v-65H39.899z M90.128,265.398l-0.048-22.682l-11.125,18.682h-3.941l-11.114-18.623v22.623h-8v-38
			h7.076l14.154,23.464l13.917-23.464h7.18l0.107,38H90.128z M135.526,265.398l-3.354-9h-17.516l-3.367,9h-8.962l16.843-38h8.638
			l16.896,38H135.526z M175.899,234.398h-13v31h-8v-31h-12v-7h33V234.398z M208.899,265.398h-29v-38h29v7h-20v8h17v7h-17v9h20
			V265.398z M243.004,259.73c-1.188,1.764-2.959,3.186-5.316,4.266s-5.336,1.619-8.934,1.619c-3.023,0-5.92-0.404-8.691-1.215
			s-5.002-1.863-6.693-3.158l2.969-6.586c1.619,1.152,3.535,2.098,5.748,2.834c2.215,0.738,4.455,1.107,6.721,1.107
			c1.729,0,3.123-0.17,4.184-0.514c1.063-0.342,1.844-0.818,2.35-1.43c0.504-0.611,0.756-1.314,0.756-2.105
			c0-1.008-0.396-1.809-1.188-2.402c-0.793-0.594-1.836-1.08-3.131-1.457c-1.297-0.379-2.727-0.738-4.293-1.08
			c-1.564-0.342-3.131-0.764-4.695-1.27c-1.566-0.502-2.996-1.15-4.293-1.943c-1.295-0.791-2.348-1.834-3.158-3.131
			c-0.809-1.295-1.213-2.949-1.213-4.965c0-2.16,0.584-4.131,1.754-5.912c1.168-1.781,2.932-3.203,5.289-4.264
			c2.357-1.063,5.318-1.594,8.881-1.594c2.375,0,4.715,0.279,7.018,0.838c2.303,0.558,4.336,1.395,6.1,2.51l-2.699,6.641
			c-1.764-1.008-3.527-1.756-5.289-2.241c-1.764-0.485-3.492-0.729-5.184-0.729s-3.076,0.199-4.156,0.595s-1.854,0.909-2.32,1.538
			c-0.469,0.631-0.703,1.359-0.703,2.186c0,0.973,0.396,1.756,1.189,2.35c0.791,0.594,1.834,1.07,3.131,1.43
			c1.295,0.361,2.725,0.721,4.291,1.08c1.564,0.359,3.131,0.773,4.695,1.242c1.566,0.467,2.996,1.098,4.293,1.889
			c1.295,0.793,2.348,1.836,3.158,3.131c0.809,1.295,1.215,2.934,1.215,4.912C244.788,256.025,244.194,257.968,243.004,259.73z"/>
		<polygon points="117.417,250.398 129.422,250.398 123.431,235.935 		"/>
	</g>
</g>
<g id="Layer_4">
	<g>
		<g>
			<g>
				<path fill="#7CB342" d="M92.828,65.633c0,0,13.171-46.933,55.84-47.862c42.668-0.926,54.728,47.121,54.728,47.121
					s-25.048-1.112-31.353-17.622c0,0-5.381,17.994-23.375,27.269c0,0-12.664-4.906-23.561-26.159
					C125.107,48.38,114.533,66.005,92.828,65.633z"/>
				<path d="M148.755,76.181l-0.629-0.244c-0.52-0.202-12.444-5.004-23.191-24.678c-3.657,4.832-14.156,16.147-32.132,15.873
					l-1.943-0.034l0.525-1.872c0.135-0.48,13.972-48.014,57.251-48.957c0.417-0.009,0.834-0.014,1.246-0.014
					c42.366,0,54.849,47.786,54.97,48.269l0.49,1.953l-2.011-0.089c-0.992-0.044-22.849-1.184-31.124-15.322
					c-2.508,5.805-9.069,17.701-22.851,24.805L148.755,76.181z M125.21,45.293l1.232,2.402
					c9.189,17.923,19.614,23.917,22.176,25.174c16.677-8.951,21.936-25.859,21.988-26.031l1.269-4.211l1.569,4.107
					c4.84,12.673,21.855,15.761,27.883,16.464c-2.906-9.043-16.671-44.684-52.627-43.928c-36.19,0.789-50.756,36.125-53.8,44.842
					c19.233-0.728,28.824-16.343,28.921-16.504L125.21,45.293z"/>
			</g>
			<g>
				<path fill="#7CB342" d="M110.269,109.971c0,0-8.903-18.92-6.677-45.449c0,0,16.48-7.422,21.516-16.142
					c0,0,5.773,12.571,14.658,19.852C139.766,68.231,132.566,95.313,110.269,109.971z"/>
				<path d="M109.647,112.174l-0.736-1.564c-0.37-0.788-9.048-19.59-6.814-46.213l0.074-0.879l0.805-0.363
					c0.161-0.072,16.1-7.328,20.833-15.524l1.45-2.511l1.212,2.635c0.057,0.123,5.742,12.35,14.246,19.318l0.747,0.612l-0.248,0.933
					c-0.3,1.128-7.605,27.805-30.123,42.608L109.647,112.174z M105.018,65.512c-1.581,21.029,3.935,37.167,5.922,42.188
					c18.22-12.845,25.672-34.312,27.11-38.953c-6.416-5.567-11.085-13.519-13.144-17.419
					C119.396,58.339,108.16,64.014,105.018,65.512z"/>
			</g>
			<g>
				<path fill="#7CB342" d="M148.65,118.863c0,0-18.393-18.016-19.133-27.954c0,0,11.153-20.965,10.248-22.677
					c0,0,7.305,5.34,8.902,6.307c0,0,7.4-4.384,9.275-6.246c0,0,1.337,7.802,10.46,22.99
					C168.403,91.283,159.772,109.402,148.65,118.863z"/>
				<path d="M148.579,120.893l-0.979-0.958c-0.767-0.752-18.806-18.531-19.579-28.915l-0.032-0.433l0.204-0.383
					c4.813-9.047,9.808-19.378,10.11-21.528l-2.906-5.496l5.253,3.841c1.739,1.271,6.078,4.417,8.05,5.75
					c2.405-1.453,6.917-4.282,8.186-5.542l2.048-2.033l0.487,2.844c0.013,0.072,1.448,7.79,10.267,22.471l0.415,0.69l-0.347,0.727
					c-0.358,0.751-8.898,18.518-20.135,28.077L148.579,120.893z M131.056,91.211c0.931,7.302,12.214,20.075,17.658,25.596
					c9.046-8.256,16.33-22.162,17.983-25.456c-6.087-10.25-8.625-17.089-9.627-20.431c-2.788,2.022-7.037,4.553-7.637,4.908
					l-0.773,0.458l-0.768-0.465c-1.128-0.683-4.847-3.356-7.143-5.02C139.79,73.754,137.258,79.53,131.056,91.211z"/>
			</g>
			<g>
				<path fill="#7CB342" d="M187.654,109.852c0,0-27.237-18.778-29.424-41.216c0,0,11.836-13.826,13.904-20.063
					c0,0,4.465,9.433,23.627,15.265C195.762,63.838,197.845,94.916,187.654,109.852z"/>
				<path d="M188.044,111.942l-1.241-0.855c-1.135-0.783-27.837-19.437-30.065-42.306l-0.062-0.636l0.415-0.485
					c0.117-0.136,11.668-13.673,13.62-19.559l1.178-3.553l1.602,3.383c0.039,0.081,4.549,8.945,22.708,14.472l0.991,0.302
					l0.069,1.033c0.086,1.29,1.999,31.769-8.365,46.959L188.044,111.942z M159.791,69.115c2.213,18.514,22.207,34.643,27.458,38.585
					c7.888-13.206,7.299-37.479,7.068-42.74c-13.113-4.185-19.31-10.031-21.912-13.299
					C169.176,57.831,161.678,66.876,159.791,69.115z"/>
			</g>
			<g>
				<path fill="#7CB342" d="M149.334,155.178c0,0-16.662-17.091-18.232-29.91c0,0,7.313-7.359,11.313-12.95
					c0,0,3.302,4.07,6.892,6.861c0,0,5.2-5.734,6.518-7.52c0,0,8.834,12.127,11.466,14.099
					C167.289,125.758,165.125,139.669,149.334,155.178z"/>
				<path d="M149.311,157.303l-1.051-1.078c-0.695-0.712-17.034-17.604-18.647-30.774l-0.089-0.723l0.514-0.517
					c0.072-0.073,7.274-7.34,11.157-12.766l1.145-1.6l1.24,1.527c0.029,0.035,2.594,3.181,5.571,5.74
					c1.553-1.73,4.545-5.094,5.467-6.343l1.215-1.646l1.205,1.653c3.498,4.802,9.354,12.435,11.153,13.781l0.721,0.541l-0.139,0.891
					c-0.091,0.588-2.424,14.583-18.386,30.26L149.311,157.303z M132.692,125.79c1.699,10.264,13.139,23.38,16.677,27.232
					c12.267-12.494,15.574-23.713,16.275-26.712c-2.587-2.481-7.562-9.07-9.876-12.194c-1.996,2.37-5.182,5.884-5.351,6.071
					l-0.934,1.03l-1.098-0.854c-2.36-1.835-4.569-4.164-5.888-5.646C139.045,119.198,134.277,124.166,132.692,125.79z"/>
			</g>
			<g>
				<path fill="#7CB342" d="M122.316,132.524c0,0-8.025-18.515-5.878-27.069c0,0,12.69-12.595,12.97-15.133
					c0,0,0.472,8.084,12.816,21.996C142.225,112.318,132.982,125.945,122.316,132.524z"/>
				<path d="M121.629,134.71l-0.689-1.589c-0.336-0.775-8.202-19.085-5.957-28.031l0.102-0.405l0.296-0.294
					c5.725-5.683,12.149-12.759,12.543-14.283l2.98,0.127c0.005,0.065,0.708,7.865,12.441,21.088l0.774,0.873l-0.655,0.965
					c-0.385,0.567-9.547,13.97-20.362,20.641L121.629,134.71z M117.804,106.212c-1.36,6.661,3.393,19.511,5.21,24.066
					c8.063-5.54,15.151-14.881,17.302-17.86c-7.206-8.314-10.23-14.56-11.498-18.238C126.08,97.797,121.219,102.812,117.804,106.212
					z"/>
			</g>
			<g>
				<path fill="#7CB342" d="M175.092,132.619c0,0-18.141-15.323-18.985-20.869c0,0,7.612-10.714,12.297-20.466
					c0,0,9.626,12.056,12.984,13.701C181.388,104.984,182.423,120.116,175.092,132.619z"/>
				<path d="M175.485,134.914l-1.361-1.149c-3.101-2.62-18.616-15.981-19.5-21.789l-0.091-0.6l0.352-0.495
					c0.075-0.106,7.594-10.727,12.167-20.247l1.034-2.153l1.49,1.866c3.641,4.56,10.247,12.2,12.472,13.29l0.778,0.381l0.059,0.864
					c0.043,0.637,0.98,15.74-6.499,28.496L175.485,134.914z M157.726,112.053c1.306,3.764,10.416,12.576,16.944,18.23
					c5.24-10.053,5.331-21.435,5.251-24.438c-3.085-2.142-8.537-8.554-11.213-11.806
					C164.639,101.976,159.236,109.886,157.726,112.053z"/>
			</g>
			<g>
				<line fill="#7CB342" x1="148.668" y1="17.771" x2="148.721" y2="-0.394"/>
				<rect x="147.194" y="-0.394" transform="matrix(1 0.0029 -0.0029 1 0.0261 -0.4356)" width="3" height="18.164"/>
			</g>
			<g>
				<line fill="#7CB342" x1="154.985" y1="6.424" x2="148.762" y2="11.991"/>
				<rect x="150.373" y="5.033" transform="matrix(0.6666 0.7454 -0.7454 0.6666 57.4945 -110.1361)" width="3" height="8.35"/>
			</g>
			<g>
				<line fill="#7CB342" x1="142.816" y1="2.273" x2="148.791" y2="6.171"/>
				<rect x="142.237" y="2.722" transform="matrix(0.8375 0.5464 -0.5464 0.8375 25.9978 -78.9828)" width="7.134" height="3"/>
			</g>
		</g>
		<g>
			<g>
				<path fill="#7CB342" d="M214.401,106.699c0,0,9.499-33.854,40.277-34.525c30.776-0.668,39.475,33.988,39.475,33.988
					s-18.066-0.801-22.614-12.71c0,0-3.881,12.979-16.86,19.669c0,0-9.136-3.539-16.994-18.868
					C237.685,94.253,230.057,106.966,214.401,106.699z"/>
				<path d="M254.766,114.763l-0.629-0.244c-0.376-0.146-8.892-3.577-16.636-17.433c-2.957,3.717-10.378,11.116-22.613,11.116
					l-2.456-0.038l0.525-1.872c0.098-0.349,10.164-34.933,41.689-35.62c31.64-0.709,40.873,34.768,40.962,35.123l0.49,1.953
					l-2.011-0.089c-0.709-0.031-16.005-0.828-22.371-10.579c-2.045,4.446-6.845,12.474-16.35,17.373L254.766,114.763z
					 M237.792,91.178l1.228,2.391c6.334,12.356,13.543,16.797,15.62,17.875c11.757-6.416,15.426-18.3,15.462-18.421l1.264-4.228
					l1.574,4.123c3.245,8.497,14.377,10.886,19.117,11.525c-2.464-7.315-12.443-31.278-37.346-30.769
					c-25.104,0.547-35.64,24.411-38.212,31.48c13.185-0.824,19.833-11.561,19.901-11.674L237.792,91.178z"/>
			</g>
			<g>
				<path fill="#7CB342" d="M226.981,138.679c0,0-6.423-13.648-4.817-32.783c0,0,11.889-5.354,15.521-11.643
					c0,0,4.165,9.069,10.573,14.32C248.258,108.573,243.063,128.106,226.981,138.679z"/>
				<path d="M226.36,140.883l-0.736-1.565c-0.269-0.572-6.575-14.234-4.955-33.547l0.074-0.879l0.805-0.363
					c0.114-0.052,11.492-5.231,14.838-11.025l1.449-2.51l1.212,2.634c0.041,0.087,4.105,8.824,10.161,13.786l0.747,0.612
					l-0.248,0.933c-0.218,0.82-5.53,20.21-21.902,30.975L226.36,140.883z M223.592,106.882c-1.025,14.306,2.529,25.45,4.07,29.504
					c12.395-8.99,17.687-23.574,18.877-27.308c-4.286-3.796-7.474-9.009-9.073-11.951
					C233.438,101.878,226.059,105.69,223.592,106.882z"/>
			</g>
			<g>
				<path fill="#7CB342" d="M254.666,145.093c0,0-13.267-12.994-13.801-20.164c0,0,8.045-15.123,7.393-16.356
					c0,0,5.269,3.852,6.421,4.548c0,0,5.337-3.162,6.69-4.506c0,0,0.964,5.631,7.545,16.585
					C268.914,125.2,262.688,138.27,254.666,145.093z"/>
				<path d="M254.595,147.123l-0.979-0.958c-1.399-1.371-13.687-13.607-14.247-21.125l-0.033-0.433l0.204-0.383
					c3.263-6.134,6.834-13.49,7.223-15.269l-2.875-5.435l5.254,3.841c1.192,0.872,4.083,2.967,5.572,3.987
					c2.025-1.23,4.817-3.025,5.597-3.799l2.048-2.034l0.487,2.845c0.009,0.049,1.046,5.568,7.352,16.065l0.415,0.69l-0.347,0.727
					c-0.26,0.545-6.458,13.44-14.63,20.391L254.595,147.123z M242.407,125.225c0.746,5.044,8.362,13.748,12.319,17.804
					c6.16-5.771,11.144-15.126,12.48-17.763c-4.011-6.784-5.868-11.5-6.695-14.081c-2.01,1.407-4.666,2.989-5.068,3.227
					l-0.772,0.458l-0.769-0.464c-0.762-0.46-3.054-2.1-4.719-3.304C248.352,113.433,246.46,117.584,242.407,125.225z"/>
			</g>
			<g>
				<path fill="#7CB342" d="M282.8,138.593c0,0-19.647-13.545-21.224-29.729c0,0,8.536-9.975,10.028-14.473
					c0,0,3.222,6.805,17.044,11.01C288.648,105.402,290.15,127.818,282.8,138.593z"/>
				<path d="M283.189,140.684l-1.241-0.855c-0.826-0.569-20.24-14.132-21.865-30.818l-0.062-0.636l0.415-0.485
					c2.321-2.713,8.597-10.512,9.744-13.97l1.178-3.552l1.602,3.383c0.025,0.051,3.243,6.298,16.125,10.217l0.991,0.301l0.069,1.034
					c0.063,0.936,1.45,23.061-6.106,34.137L283.189,140.684z M263.139,109.34c1.631,12.717,15.023,23.86,19.244,27.083
					c5.255-9.279,4.985-25.673,4.818-29.904c-8.743-2.841-13.224-6.717-15.328-9.163
					C269.453,101.704,264.612,107.585,263.139,109.34z"/>
			</g>
			<g>
				<path fill="#7CB342" d="M255.158,171.289c0,0-12.018-12.329-13.15-21.576c0,0,5.275-5.309,8.16-9.341
					c0,0,2.381,2.938,4.971,4.948c0,0,3.75-4.135,4.701-5.423c0,0,6.372,8.747,8.27,10.171
					C268.109,150.068,266.549,160.1,255.158,171.289z"/>
				<path d="M255.135,173.414l-1.051-1.078c-0.505-0.519-12.384-12.802-13.565-22.44l-0.089-0.723l0.514-0.517
					c0.052-0.052,5.225-5.271,8.004-9.156l1.145-1.601l1.24,1.528c0.02,0.024,1.675,2.056,3.657,3.816
					c1.272-1.421,3.073-3.465,3.644-4.237l1.215-1.645l1.204,1.653c2.413,3.312,6.707,8.916,7.958,9.854l0.72,0.541l-0.138,0.89
					c-0.067,0.43-1.771,10.655-13.382,22.061L255.135,173.414z M243.604,150.228c1.273,6.996,8.799,15.821,11.589,18.897
					c8.26-8.538,10.68-16.153,11.269-18.526c-1.822-1.817-4.919-5.883-6.685-8.257c-1.443,1.688-3.414,3.862-3.527,3.987
					l-0.934,1.029l-1.097-0.852c-1.54-1.195-2.989-2.677-3.968-3.751C247.883,145.763,244.825,148.971,243.604,150.228z"/>
			</g>
			<g>
				<path fill="#7CB342" d="M235.671,154.947c0,0-5.788-13.355-4.24-19.523c0,0,9.155-9.085,9.355-10.916
					c0,0,0.341,5.83,9.245,15.864C250.031,140.372,243.364,150.202,235.671,154.947z"/>
				<path d="M234.983,157.133l-0.689-1.59c-0.245-0.564-5.972-13.899-4.319-20.485l0.102-0.405l0.296-0.294
					c4-3.969,8.556-8.969,8.942-10.125c0,0-0.013,0.041-0.021,0.111l2.989,0.076c0.003,0.038,0.536,5.564,8.87,14.956l0.774,0.873
					l-0.655,0.965c-0.279,0.413-6.938,10.152-14.814,15.01L234.983,157.133z M232.802,136.175
					c-0.769,4.188,1.866,12.198,3.561,16.51c5.372-3.833,10.069-9.905,11.76-12.219c-4.641-5.405-6.846-9.612-7.893-12.334
					C238.339,130.518,235.438,133.549,232.802,136.175z"/>
			</g>
			<g>
				<path fill="#7CB342" d="M273.738,155.015c0,0-13.085-11.052-13.694-15.051c0,0,5.491-7.73,8.87-14.765
					c0,0,6.943,8.694,9.366,9.882C278.28,135.082,279.025,145.997,273.738,155.015z"/>
				<path d="M274.131,157.311l-1.361-1.149c-2.257-1.906-13.549-11.635-14.209-15.971l-0.091-0.6l0.351-0.495
					c0.054-0.076,5.458-7.712,8.741-14.545l1.034-2.152l1.49,1.866c2.797,3.501,7.393,8.754,8.854,9.471l0.777,0.381l0.059,0.864
					c0.032,0.464,0.714,11.483-4.745,20.794L274.131,157.311z M261.679,140.244c1.048,2.523,6.876,8.27,11.625,12.42
					c3.394-6.837,3.549-14.396,3.505-16.745c-2.157-1.585-5.567-5.53-7.596-7.977C266.41,133.297,262.877,138.515,261.679,140.244z"
					/>
			</g>
			<g>
				<line fill="#7CB342" x1="254.679" y1="72.173" x2="254.716" y2="59.071"/>
				<rect x="253.197" y="59.071" transform="matrix(1 0.0029 -0.0029 1 0.1933 -0.7459)" width="3" height="13.102"/>
			</g>
			<g>
				<line fill="#7CB342" x1="259.235" y1="63.99" x2="254.746" y2="68.005"/>
				<rect x="255.491" y="62.986" transform="matrix(0.6666 0.7454 -0.7454 0.6666 134.8687 -169.5575)" width="3" height="6.023"/>
			</g>
			<g>
				<line fill="#7CB342" x1="250.458" y1="60.995" x2="254.767" y2="63.809"/>
				<rect x="250.039" y="60.902" transform="matrix(0.8373 0.5467 -0.5467 0.8373 75.2189 -127.9624)" width="5.146" height="3"/>
			</g>
		</g>
		<g>
			<g>
				<path fill="#7CB342" d="M2.07,106.699c0,0,9.5-33.854,40.277-34.525c30.777-0.668,39.475,33.988,39.475,33.988
					s-18.065-0.801-22.613-12.71c0,0-3.882,12.979-16.861,19.669c0,0-9.136-3.539-16.994-18.868
					C25.354,94.253,17.726,106.966,2.07,106.699z"/>
				<path d="M42.435,114.763l-0.629-0.244c-0.376-0.146-8.892-3.577-16.636-17.433c-2.957,3.717-10.378,11.116-22.613,11.116
					l-2.456-0.038l0.525-1.872c0.098-0.349,10.165-34.933,41.689-35.62c31.626-0.71,40.873,34.768,40.962,35.123l0.49,1.953
					l-2.011-0.089c-0.709-0.031-16.004-0.828-22.37-10.579c-2.045,4.446-6.846,12.474-16.351,17.373L42.435,114.763z M25.46,91.178
					l1.228,2.391c6.334,12.356,13.543,16.797,15.62,17.875c11.714-6.395,15.427-18.302,15.464-18.423l1.271-4.205l1.567,4.101
					c3.245,8.497,14.376,10.886,19.116,11.525c-2.464-7.315-12.447-31.299-37.346-30.769c-25.103,0.547-35.64,24.411-38.212,31.48
					C17.354,104.329,24,93.592,24.069,93.479L25.46,91.178z"/>
			</g>
			<g>
				<path fill="#7CB342" d="M14.65,138.679c0,0-6.423-13.648-4.816-32.783c0,0,11.888-5.354,15.52-11.643
					c0,0,4.165,9.069,10.574,14.32C35.928,108.573,30.732,128.106,14.65,138.679z"/>
				<path d="M14.029,140.883l-0.736-1.565c-0.269-0.572-6.575-14.234-4.954-33.547l0.074-0.879l0.805-0.363
					c0.114-0.052,11.491-5.231,14.837-11.025l1.449-2.51l1.212,2.634c0.041,0.087,4.105,8.824,10.162,13.786l0.747,0.612
					l-0.248,0.934c-0.218,0.82-5.531,20.21-21.903,30.974L14.029,140.883z M11.262,106.882c-1.026,14.306,2.528,25.45,4.069,29.504
					c12.418-9.004,17.693-23.576,18.879-27.308c-4.287-3.796-7.476-9.01-9.075-11.952C21.107,101.878,13.729,105.69,11.262,106.882z
					"/>
			</g>
			<g>
				<path fill="#7CB342" d="M42.336,145.093c0,0-13.268-12.994-13.802-20.164c0,0,8.045-15.123,7.394-16.356
					c0,0,5.268,3.852,6.42,4.548c0,0,5.337-3.162,6.69-4.506c0,0,0.965,5.631,7.546,16.585
					C56.584,125.2,50.357,138.27,42.336,145.093z"/>
				<path d="M42.265,147.123l-0.978-0.958c-1.399-1.371-13.688-13.607-14.248-21.125l-0.033-0.433l0.204-0.383
					c3.263-6.135,6.835-13.492,7.224-15.269l-2.868-5.431l5.247,3.837c1.192,0.872,4.082,2.967,5.571,3.987
					c2.025-1.23,4.817-3.025,5.597-3.799l2.048-2.033l0.487,2.844c0.009,0.049,1.046,5.569,7.353,16.066l0.415,0.69l-0.347,0.727
					c-0.26,0.545-6.458,13.44-14.63,20.391L42.265,147.123z M30.076,125.225c0.746,5.048,8.362,13.75,12.32,17.804
					c6.167-5.776,11.146-15.127,12.481-17.763c-4.012-6.784-5.869-11.5-6.696-14.082c-2.01,1.407-4.667,2.989-5.068,3.228
					l-0.772,0.458l-0.769-0.464c-0.762-0.46-3.054-2.1-4.719-3.304C36.021,113.432,34.129,117.584,30.076,125.225z"/>
			</g>
			<g>
				<path fill="#7CB342" d="M70.469,138.593c0,0-19.647-13.545-21.224-29.729c0,0,8.537-9.975,10.028-14.473
					c0,0,3.222,6.805,17.044,11.01C76.317,105.402,77.82,127.818,70.469,138.593z"/>
				<path d="M70.858,140.684l-1.241-0.855c-0.826-0.569-20.24-14.132-21.865-30.818l-0.062-0.636l0.415-0.485
					c2.322-2.713,8.598-10.511,9.744-13.97l1.178-3.553l1.602,3.384c0.025,0.051,3.243,6.298,16.125,10.217l0.991,0.301l0.069,1.033
					c0.063,0.937,1.451,23.061-6.106,34.137L70.858,140.684z M50.808,109.34c1.629,12.7,15.023,23.855,19.245,27.083
					c5.261-9.286,4.986-25.674,4.817-29.903c-8.744-2.84-13.224-6.717-15.328-9.163C57.122,101.704,52.281,107.585,50.808,109.34z"
					/>
			</g>
			<g>
				<path fill="#7CB342" d="M42.828,171.289c0,0-12.018-12.329-13.151-21.576c0,0,5.275-5.309,8.16-9.341
					c0,0,2.382,2.938,4.972,4.948c0,0,3.75-4.135,4.7-5.423c0,0,6.372,8.747,8.27,10.171
					C55.778,150.068,54.219,160.1,42.828,171.289z"/>
				<path d="M42.805,173.414l-1.051-1.078c-0.505-0.519-12.384-12.802-13.566-22.44l-0.089-0.723l0.514-0.517
					c0.052-0.052,5.225-5.271,8.004-9.156l1.145-1.6l1.24,1.528c0.02,0.024,1.676,2.056,3.658,3.816
					c1.272-1.421,3.072-3.464,3.642-4.237l1.214-1.646l1.205,1.654c2.413,3.312,6.707,8.916,7.958,9.854l0.72,0.541l-0.138,0.89
					c-0.067,0.43-1.77,10.655-13.381,22.061L42.805,173.414z M31.272,150.228c1.274,6.996,8.8,15.82,11.59,18.897
					c8.216-8.497,10.666-16.147,11.265-18.529c-1.823-1.818-4.918-5.881-6.682-8.254c-1.442,1.688-3.413,3.862-3.526,3.987
					l-0.934,1.029l-1.097-0.852c-1.54-1.195-2.99-2.677-3.969-3.751C35.552,145.763,32.494,148.971,31.272,150.228z"/>
			</g>
			<g>
				<path fill="#7CB342" d="M23.34,154.947c0,0-5.788-13.355-4.24-19.523c0,0,9.155-9.085,9.355-10.916c0,0,0.342,5.83,9.245,15.864
					C37.7,140.372,31.033,150.202,23.34,154.947z"/>
				<path d="M22.652,157.133l-0.689-1.59c-0.245-0.564-5.972-13.899-4.319-20.485l0.102-0.405l0.296-0.294
					c4-3.969,8.556-8.969,8.942-10.125c0,0-0.013,0.041-0.021,0.111l2.989,0.075c0.003,0.039,0.536,5.565,8.87,14.957l0.774,0.873
					l-0.655,0.965c-0.279,0.413-6.938,10.152-14.814,15.01L22.652,157.133z M20.471,136.175c-0.769,4.188,1.866,12.198,3.561,16.51
					c5.372-3.833,10.07-9.905,11.76-12.219c-4.641-5.405-6.846-9.612-7.893-12.334C26.008,130.518,23.106,133.549,20.471,136.175z"
					/>
			</g>
			<g>
				<path fill="#7CB342" d="M61.407,155.015c0,0-13.085-11.052-13.694-15.051c0,0,5.491-7.73,8.871-14.765
					c0,0,6.942,8.694,9.365,9.882C65.949,135.082,66.694,145.997,61.407,155.015z"/>
				<path d="M61.8,157.311l-1.361-1.149c-2.257-1.906-13.549-11.635-14.209-15.971l-0.091-0.6l0.351-0.495
					c0.054-0.076,5.458-7.712,8.742-14.545l1.034-2.152l1.49,1.866c2.796,3.501,7.391,8.754,8.853,9.471l0.777,0.381l0.059,0.864
					c0.032,0.464,0.714,11.483-4.745,20.794L61.8,157.311z M49.348,140.244c1.048,2.523,6.876,8.27,11.625,12.42
					c3.394-6.837,3.549-14.396,3.505-16.745c-2.157-1.585-5.567-5.53-7.595-7.977C54.079,133.297,50.546,138.515,49.348,140.244z"/>
			</g>
			<g>
				<line fill="#7CB342" x1="42.348" y1="72.173" x2="42.385" y2="59.071"/>
				<rect x="40.866" y="59.071" transform="matrix(1 0.0029 -0.0029 1 0.1924 -0.1238)" width="3" height="13.102"/>
			</g>
			<g>
				<line fill="#7CB342" x1="46.904" y1="63.99" x2="42.415" y2="68.005"/>
				<rect x="43.16" y="62.986" transform="matrix(0.6666 0.7454 -0.7454 0.6666 64.0825 -11.2871)" width="3" height="6.023"/>
			</g>
			<g>
				<line fill="#7CB342" x1="38.127" y1="60.995" x2="42.436" y2="63.809"/>
				<rect x="37.708" y="60.902" transform="matrix(0.8373 0.5467 -0.5467 0.8373 40.672 -11.8707)" width="5.146" height="3"/>
			</g>
		</g>
	</g>
</g>
<g id="Layer_2">
	<path fill="#020202" d="M79.317,203.787v-31.288h14.661c3.755,0,6.615,0.737,8.582,2.212c1.967,1.476,2.95,3.45,2.95,5.923
		c0,1.669-0.388,3.092-1.162,4.269c-0.775,1.178-1.811,2.086-3.106,2.727c-1.297,0.641-2.705,0.961-4.225,0.961l0.805-1.609
		c1.758,0,3.337,0.32,4.738,0.961c1.4,0.642,2.51,1.572,3.33,2.794c0.819,1.222,1.229,2.742,1.229,4.56
		c0,2.682-1.027,4.768-3.084,6.258c-2.056,1.49-5.11,2.234-9.163,2.234H79.317z M85.128,199.228h9.387
		c2.175,0,3.844-0.357,5.006-1.073s1.743-1.862,1.743-3.442c0-1.549-0.581-2.688-1.743-3.418s-2.831-1.096-5.006-1.096h-9.833
		v-4.515h8.671c2.026,0,3.583-0.357,4.671-1.073c1.088-0.715,1.632-1.787,1.632-3.218c0-1.46-0.544-2.548-1.632-3.263
		s-2.645-1.072-4.671-1.072h-8.225V199.228z"/>
	<path fill="#020202" d="M113.331,203.787v-31.288h12.873c2.771,0,5.147,0.446,7.129,1.341s3.509,2.176,4.582,3.844
		c1.072,1.67,1.609,3.65,1.609,5.945s-0.537,4.269-1.609,5.922c-1.073,1.654-2.601,2.921-4.582,3.799
		c-1.981,0.88-4.357,1.319-7.129,1.319h-9.654l2.592-2.638v11.756H113.331z M119.142,192.658l-2.592-2.771h9.387
		c2.562,0,4.491-0.551,5.788-1.654c1.296-1.102,1.944-2.637,1.944-4.604c0-1.996-0.648-3.531-1.944-4.604
		c-1.297-1.073-3.227-1.609-5.788-1.609h-9.387l2.592-2.861V192.658z M133.803,203.787l-7.911-11.354h6.213l7.956,11.354H133.803z"
		/>
	<path fill="#020202" d="M151.816,198.915h17.656v4.872h-23.467v-31.288h22.84v4.872h-17.029V198.915z M151.369,185.505h15.555
		v4.783h-15.555V185.505z"/>
	<path fill="#020202" d="M182.88,203.787l-10.369-31.288h6.033l9.252,28.294h-2.994l9.609-28.294h5.363l9.342,28.294h-2.904
		l9.477-28.294h5.541l-10.369,31.288h-6.168l-8.537-25.521h1.609l-8.672,25.521H182.88z"/>
	<g>
	</g>
	<g>
	</g>
	<g>
	</g>
	<g>
	</g>
	<g>
	</g>
	<g>
	</g>
	<g>
	</g>
	<g>
	</g>
	<g>
	</g>
	<g>
	</g>
	<g>
	</g>
	<g>
	</g>
	<g>
	</g>
	<g>
	</g>
	<g>
	</g>
</g>
</svg>
